<?xml version="1.0" encoding="UTF-8"?>
<svg width="752pt" height="752pt" version="1.1" viewBox="0 0 752 752" xmlns="http://www.w3.org/2000/svg">
 <g>
  <path d="m274.66 408.2 31.73 31.73c2.8398 2.8398 7.1055 2.8398 9.9453 0l10.891-10.891c0.94531 0.47266 1.8945 0.94531 2.8398 0.94531v15.156c0 3.7891 3.3164 7.1055 7.1055 7.1055h44.516c3.7891 0 7.1055-3.3164 7.1055-7.1055v-15.156c0.94531-0.47266 1.8945-0.94531 2.8398-0.94531l10.891 10.891c1.4219 1.4219 3.3164 1.8945 5.2109 1.8945s3.7891-0.94531 5.2109-1.8945l31.73-31.73c2.8398-2.8398 2.8398-7.1055 0-9.9453l-11.84-10.891c0.47266-0.94531 0.94531-1.8945 0.94531-2.8398h15.156c3.7891 0 7.1055-3.3164 7.1055-7.1055v-44.516c0-3.7891-3.3164-7.1055-7.1055-7.1055h-15.156c-0.47266-0.94531-0.94531-1.8945-0.94531-2.8398l10.891-10.891c2.8398-2.8398 2.8398-7.1055 0-9.9453l-31.73-31.73c-2.8398-2.8398-7.5781-2.8398-9.9453 0l-10.891 10.891c-0.94531-0.47266-1.8945-0.94531-2.8398-0.94531v-15.156c0-3.7891-3.3164-7.1055-7.1055-7.1055h-44.516c-3.7891 0-7.1055 3.3164-7.1055 7.1055v15.156c-0.94531 0.47266-1.4219 0.94531-2.3672 0.94531l-10.891-10.891c-2.8398-2.8398-7.1055-2.8398-9.9453 0l-31.73 31.73c-2.8438 2.8398-2.8438 7.5742 0 9.9414l10.891 10.891c-0.47266 0.94531-0.94531 1.8945-0.94531 2.8398h-15.156c-3.7891 0-7.1055 3.3164-7.1055 7.1055v44.516c0 3.7891 3.3164 7.1055 7.1055 7.1055h15.156c0.47266 0.94531 0.94531 1.8945 0.94531 2.8398l-10.891 10.891c-2.8438 2.375-2.8438 7.1094 0 9.9492zm1.418-37.883v-30.309h13.262c3.3164 0 5.6836-1.8945 6.6289-4.7344 0.94531-3.3164 2.3672-6.6289 4.2617-9.9453 1.4219-2.8398 0.94531-6.1562-1.4219-8.0508l-9.4727-9.4727 21.312-21.312 9.4727 9.4727c2.3672 2.3672 5.6836 2.8398 8.0508 1.4219 3.3164-1.8945 6.6289-3.3164 9.9453-4.2617 2.8398-0.94531 4.7344-3.7891 4.7344-6.6289v-13.262h30.309v13.262c0 3.3164 1.8945 5.6836 4.7344 6.6289 3.3164 0.94531 6.6289 2.3672 9.9453 4.2617 2.8398 1.4219 6.1562 0.94531 8.0508-1.4219l9.4727-9.4727 21.312 21.312-9.4727 9.4727c-2.3672 2.3672-2.8398 5.6836-1.4219 8.0508 1.8945 3.3164 3.3164 6.6289 4.2617 9.9453 0.94531 2.8398 3.7891 4.7344 6.6289 4.7344h13.262v30.309h-13.262c-3.3164 0-5.6836 1.8945-6.6289 4.7344-0.94531 3.3164-2.3672 6.6289-4.2617 9.9453-1.4219 2.8398-0.94531 6.1562 1.4219 8.0508l9.4727 9.4727-21.312 21.312-9.4727-9.4727c-2.3672-2.3672-5.6836-2.8398-8.0508-1.4219-3.3164 1.8945-6.6289 3.3164-9.9453 4.2617-2.8398 0.94531-4.7344 3.7891-4.7344 6.6289v13.262h-30.305v-13.262c0-3.3164-1.8945-5.6836-4.7344-6.6289-3.3164-0.94531-6.6289-2.3672-9.9453-4.2617-2.8398-1.4219-6.1562-0.94531-8.0508 1.4219l-9.4727 9.4727-21.312-21.312 9.4727-9.4727c2.3672-2.3672 2.8398-5.6836 1.4219-8.0508-1.8945-3.3164-3.3164-6.6289-4.2617-9.9453-0.94531-2.8398-3.7891-4.7344-6.6289-4.7344z"/>
  <path d="m358.95 392.1c20.363 0 36.938-16.574 36.938-36.938 0-20.363-16.574-36.938-36.938-36.938s-36.938 16.574-36.938 36.938c-0.003906 20.363 16.574 36.938 36.938 36.938zm0-59.668c12.785 0 22.73 10.418 22.73 22.73s-10.418 22.73-22.73 22.73-22.73-10.418-22.73-22.73c-0.003906-12.312 10.418-22.73 22.73-22.73z"/>
  <path d="m358.95 489.66c25.102 0 48.777-7.1055 69.145-18.941l53.043 53.043c5.2109 5.2109 11.84 7.5781 18.469 7.5781s13.734-2.3672 18.469-7.5781l1.4219-1.4219c10.418-10.418 10.418-26.992 0-37.414l-51.148-51.148c16.102-22.258 25.574-49.254 25.574-78.613 0-74.352-60.617-134.5-134.5-134.5-73.883 0-134.97 60.145-134.97 134.5 0 74.352 60.617 134.5 134.5 134.5zm150.6 5.6836c2.3672 2.3672 3.7891 5.2109 3.7891 8.5234 0 3.3164-1.4219 6.1562-3.7891 8.5234l-0.94531 1.4219c-4.7344 4.7344-12.785 4.7344-17.051 0l-50.672-50.672 4.7344-4.7344c4.7344-4.2617 9.4727-8.5234 13.734-13.262zm-150.6-260.47c66.301 0 120.29 53.988 120.29 120.29 0 28.887-10.418 55.883-27.469 76.719l-16.102 16.102c-20.836 17.051-47.359 27.469-76.719 27.469-66.301 0-120.29-53.988-120.29-120.29 0-66.301 53.988-120.29 120.29-120.29z"/>
 </g>
</svg>
